<mxfile host="app.diagrams.net" modified="2023-06-09T16:19:02.633Z" agent="Mozilla/5.0 (Windows NT 10.0; Win64; x64) AppleWebKit/537.36 (KHTML, like Gecko) Chrome/112.0.0.0 Safari/537.36 OPR/98.0.0.0 (Edition Yx GX)" version="21.3.8" etag="uNfoC11TpFsOo2U_rr7-" type="github">
  <diagram name="Страница 1" id="3dBzLKWuroAtSPjVI7Yx">
    <mxGraphModel>
      <root>
        <mxCell id="0" />
        <mxCell id="1" parent="0" />
      </root>
    </mxGraphModel>
  </diagram>
</mxfile>
